<?xml version="1.0" standalone="no"?>
<!DOCTYPE svg PUBLIC "-//W3C//DTD SVG 20010904//EN"
 "http://www.w3.org/TR/2001/REC-SVG-20010904/DTD/svg10.dtd">
<svg version="1.0" xmlns="http://www.w3.org/2000/svg"
 width="256.000000pt" height="256.000000pt" viewBox="0 0 256.000000 256.000000"
 preserveAspectRatio="xMidYMid meet">

<g transform="translate(0.000000,256.000000) scale(0.100000,-0.100000)"
fill="#000000" stroke="none">
<path d="M460 2227 c-48 -15 -113 -83 -128 -133 -17 -59 -17 -1569 0 -1628 16
-53 81 -118 134 -134 59 -17 1569 -17 1628 0 53 16 118 81 134 134 17 59 17
1569 0 1628 -16 53 -81 118 -134 134 -56 16 -1581 16 -1634 -1z m878 -433 c52
-36 52 -40 52 -514 0 -474 0 -478 -52 -514 -29 -20 -87 -20 -116 0 -52 36 -52
40 -52 514 0 474 0 478 52 514 12 9 38 16 58 16 20 0 46 -7 58 -16z m-435
-315 c54 -25 57 -42 57 -359 0 -254 -2 -296 -17 -320 -34 -58 -116 -68 -164
-21 l-29 29 0 312 0 312 29 29 c32 31 79 38 124 18z m878 -338 l29 -29 0 -152
0 -152 -29 -29 c-48 -47 -130 -37 -164 21 -25 41 -25 279 0 320 34 58 116 68
164 21z"/>
</g>
</svg>
